<svg width="32" height="30" viewBox="0 0 32 30" fill="none" xmlns="http://www.w3.org/2000/svg">
<path d="M17.7778 14.975H7.06111C7.05927 14.975 7.06296 14.975 7.06111 14.975L0.888889 15.025C0.398 15.025 0 15.425 0 15.9139C0 16.4028 0.398 16.8028 0.888889 16.8028H4.04833C3.74333 17.325 3.55556 17.9305 3.55556 18.5305L3.55557 25.6417C3.55557 27.605 5.14723 29.1472 7.11112 29.1472L17.7778 29.1972C19.7417 29.1972 21.3333 27.6055 21.3333 25.6917V18.5305C21.3333 16.6139 19.7389 14.975 17.7778 14.975ZM19.5556 25.6417C19.5556 26.6217 18.7578 27.3694 17.7778 27.3694H7.11111C6.13111 27.3694 5.33333 26.5722 5.33333 25.6417V18.5305C5.33333 17.6028 6.12778 16.8028 7.10556 16.8028L9.77722 16.8024C9.77842 16.8024 9.77603 16.8024 9.77722 16.8024L17.7778 16.7528C18.7578 16.7528 19.5556 17.5505 19.5556 18.4805V25.6417ZM18.6667 0.802765C16.3889 0.802765 14.4178 2.03999 13.3333 3.8661C12.25 2.03999 10.2778 0.802765 8 0.802765C4.56333 0.802765 1.77778 3.58832 1.77778 7.02499C1.77778 10.4617 4.56333 13.2472 8 13.2472H18.6667C22.1056 13.2472 24.8889 10.4639 24.8889 7.02499C24.8889 3.5861 22.1056 0.802765 18.6667 0.802765ZM18.6667 11.4694H8C5.54944 11.4694 3.55556 9.47499 3.55556 7.02499C3.55556 4.57443 5.54944 2.58054 8 2.58054C9.56722 2.58054 10.9894 3.40054 11.8044 4.77388C12.1278 5.31332 12.7056 5.64388 13.3333 5.64388C13.9611 5.64388 14.5417 5.31315 14.8622 4.77388C15.6778 3.40054 17.1 2.58054 18.6667 2.58054C21.1167 2.58054 23.1111 4.57443 23.1111 7.02499C23.1111 9.47499 21.1167 11.4694 18.6667 11.4694ZM30.7389 15.5861C29.9456 15.0948 28.9761 15.0497 28.1433 15.468L23.605 17.7369C23.1658 17.9574 22.9878 18.4903 23.2074 18.9297C23.4271 19.3672 23.9624 19.5475 24.4002 19.3273L28.9374 17.0584C29.3376 16.857 29.6752 17.0202 29.8036 17.0983C29.9278 17.225 30.2222 17.4583 30.2222 17.9028V26.3694C30.2222 26.8156 29.9279 27.0467 29.8012 27.1244C29.6728 27.2025 29.3342 27.364 28.9357 27.1644L24.3973 24.8955C23.9598 24.675 23.424 24.8555 23.2046 25.293C22.9849 25.7323 23.1629 26.2653 23.6021 26.4858L28.141 28.7547C28.5203 28.9439 28.9277 29.0377 29.3338 29.0377C29.8199 29.0377 30.3043 28.904 30.7354 28.6366C31.5278 28.1472 32 27.2528 32 26.3694V17.9028C32 16.9694 31.5278 16.125 30.7389 15.5861ZM8 5.69165C7.26389 5.69165 6.66667 6.28832 6.66667 7.02499C6.66667 7.7611 7.26389 8.35832 8 8.35832C8.73667 8.35832 9.33333 7.7611 9.33333 7.02499C9.33333 6.28832 8.73889 5.69165 8 5.69165ZM18.6667 5.69165C17.9306 5.69165 17.3333 6.28832 17.3333 7.02499C17.3333 7.7611 17.9306 8.35832 18.6667 8.35832C19.4033 8.35832 20 7.7611 20 7.02499C20 6.28832 19.4056 5.69165 18.6667 5.69165Z" fill="white"/>
</svg>
